<?xml version="1.0" encoding="utf-8"?>
<!-- Generator: Adobe Illustrator 24.3.0, SVG Export Plug-In . SVG Version: 6.00 Build 0)  -->
<svg version="1.0" id="katman_1" xmlns="http://www.w3.org/2000/svg" xmlns:xlink="http://www.w3.org/1999/xlink" x="0px" y="0px"
	 viewBox="0 0 841.89 595.28" style="enable-background:new 0 0 841.89 595.28;" xml:space="preserve">
<style type="text/css">
	.st0{fill:#E2D141;}
</style>
<g>
	<g>
		<path class="st0" d="M328.62,292.02l12.8,33.01h-3.38l-3.71-9.92h-14.51l-3.94,9.92h-3.25l13.45-33.01H328.62z M333.3,312.51
			l-6.12-16.28l-6.3,16.28L333.3,312.51z"/>
		<path class="st0" d="M357.78,315.11c0.02,1.23,0.29,2.44,0.79,3.57c0.44,0.95,1.09,1.79,1.9,2.46c0.85,0.67,1.83,1.16,2.87,1.41
			c1.21,0.31,2.46,0.46,3.71,0.44c1.21,0.01,2.42-0.15,3.59-0.49c1.03-0.29,2-0.76,2.87-1.37c0.79-0.55,1.44-1.27,1.9-2.11
			c0.46-0.85,0.69-1.8,0.67-2.76c0.05-1.09-0.25-2.17-0.86-3.08c-0.59-0.81-1.35-1.48-2.23-1.97c-0.99-0.56-2.05-0.99-3.15-1.27
			c-1.19-0.32-2.4-0.65-3.62-0.97c-1.22-0.32-2.43-0.7-3.62-1.12c-1.13-0.38-2.19-0.94-3.15-1.65c-0.93-0.7-1.69-1.59-2.23-2.62
			c-0.61-1.25-0.91-2.62-0.86-4.01c-0.04-1.35,0.3-2.69,1-3.85c0.65-1.04,1.51-1.92,2.53-2.6c1.03-0.68,2.18-1.19,3.38-1.48
			c1.18-0.3,2.4-0.46,3.62-0.46c2.52-0.07,5.02,0.49,7.28,1.62c2.19,1.26,3.8,3.32,4.5,5.75l-2.92,1.57
			c-0.5-1.92-1.71-3.59-3.38-4.66c-1.66-0.96-3.55-1.45-5.47-1.41c-0.87,0-1.73,0.12-2.57,0.35c-0.85,0.22-1.65,0.57-2.39,1.04
			c-0.7,0.45-1.29,1.04-1.74,1.74c-0.45,0.71-0.68,1.54-0.67,2.39c-0.05,1.07,0.25,2.12,0.86,3c0.6,0.78,1.35,1.42,2.22,1.88
			c1,0.53,2.06,0.93,3.15,1.21c1.19,0.31,2.4,0.62,3.62,0.93c1.22,0.31,2.43,0.67,3.62,1.06c1.13,0.37,2.19,0.91,3.15,1.6
			c0.93,0.68,1.69,1.56,2.23,2.57c0.61,1.22,0.91,2.58,0.86,3.94c0.18,2.87-1.01,5.65-3.2,7.51c-2.13,1.73-5.13,2.6-8.99,2.6
			c-1.54,0.01-3.07-0.15-4.57-0.48c-1.31-0.3-2.55-0.83-3.66-1.58c-1.08-0.74-1.99-1.71-2.66-2.83c-0.76-1.31-1.28-2.75-1.53-4.24
			L357.78,315.11z"/>
		<path class="st0" d="M397.7,315.11c0.02,1.23,0.29,2.44,0.79,3.57c0.44,0.95,1.09,1.79,1.9,2.46c0.85,0.67,1.83,1.16,2.87,1.41
			c1.21,0.31,2.46,0.46,3.71,0.44c1.21,0.01,2.42-0.15,3.59-0.49c1.03-0.29,2-0.76,2.87-1.37c0.79-0.55,1.44-1.27,1.9-2.11
			c0.46-0.85,0.69-1.8,0.67-2.76c0.05-1.09-0.25-2.17-0.86-3.08c-0.59-0.81-1.35-1.48-2.23-1.97c-0.99-0.56-2.05-0.99-3.15-1.27
			c-1.19-0.32-2.4-0.65-3.62-0.97c-1.22-0.32-2.43-0.7-3.62-1.12c-1.13-0.38-2.19-0.94-3.15-1.65c-0.93-0.7-1.69-1.59-2.23-2.62
			c-0.61-1.25-0.91-2.62-0.86-4.01c-0.04-1.35,0.3-2.69,1-3.85c0.65-1.04,1.51-1.92,2.53-2.6c1.03-0.68,2.18-1.19,3.38-1.48
			c1.18-0.3,2.4-0.46,3.62-0.46c2.52-0.07,5.02,0.49,7.28,1.62c2.19,1.26,3.8,3.32,4.5,5.75l-2.92,1.57
			c-0.5-1.92-1.71-3.59-3.38-4.66c-1.66-0.96-3.55-1.45-5.47-1.41c-0.87,0-1.73,0.12-2.57,0.35c-0.85,0.22-1.65,0.57-2.39,1.04
			c-0.7,0.45-1.29,1.04-1.74,1.74c-0.45,0.71-0.69,1.54-0.67,2.39c-0.05,1.07,0.25,2.12,0.86,3c0.6,0.78,1.35,1.42,2.22,1.88
			c1,0.53,2.06,0.93,3.15,1.21c1.19,0.31,2.4,0.62,3.62,0.93c1.22,0.31,2.43,0.67,3.62,1.06c1.13,0.37,2.19,0.91,3.15,1.6
			c0.92,0.68,1.68,1.56,2.22,2.57c0.61,1.22,0.91,2.58,0.86,3.94c0.18,2.87-1.01,5.65-3.2,7.51c-2.13,1.73-5.13,2.6-8.99,2.6
			c-1.54,0.01-3.07-0.15-4.57-0.48c-1.31-0.3-2.55-0.83-3.66-1.58c-1.08-0.74-1.99-1.71-2.66-2.83c-0.76-1.31-1.28-2.75-1.53-4.24
			L397.7,315.11z"/>
		<path class="st0" d="M460.2,314.32c0.03,1.7-0.26,3.39-0.86,4.98c-0.53,1.38-1.37,2.62-2.46,3.62c-1.11,1-2.42,1.75-3.85,2.2
			c-3.25,0.98-6.72,0.98-9.97,0c-1.43-0.45-2.74-1.2-3.85-2.2c-1.08-1-1.92-2.24-2.46-3.62c-0.6-1.59-0.89-3.28-0.86-4.98v-22.3
			h3.15v22.21c-0.04,1.39,0.2,2.78,0.72,4.08c0.83,2.08,2.6,3.65,4.77,4.22c2.29,0.62,4.71,0.62,7,0c2.17-0.57,3.94-2.13,4.77-4.22
			c0.51-1.3,0.76-2.68,0.72-4.08v-22.21h3.15L460.2,314.32z"/>
		<path class="st0" d="M478.09,292.02h14.6c1.5-0.04,2.99,0.23,4.38,0.79c1.13,0.46,2.15,1.17,2.99,2.06
			c0.77,0.85,1.36,1.85,1.72,2.95c0.37,1.09,0.55,2.23,0.55,3.38c0.16,2.45-0.79,4.83-2.6,6.49c-2.03,1.6-4.51,2.49-7.09,2.55
			l10.57,14.79h-3.99l-10.48-14.65h-7.51v14.65h-3.15L478.09,292.02z M481.25,307.5h9.78c1.38,0.04,2.76-0.15,4.08-0.58
			c0.92-0.31,1.77-0.81,2.48-1.48c0.58-0.56,1.01-1.25,1.25-2.02c0.23-0.72,0.35-1.47,0.35-2.23c0.08-1.7-0.54-3.36-1.72-4.59
			c-1.14-1.14-3.12-1.72-5.93-1.72h-10.29L481.25,307.5z"/>
		<path class="st0" d="M518.02,292.02h21.61v2.88h-18.46v11.68h16.65v2.88h-16.65v12.7h19.43v2.87h-22.57V292.02z"/>
		<path class="st0" d="M582.27,292.02h12.98c1.52-0.02,3.04,0.22,4.48,0.72c1.24,0.44,2.4,1.1,3.41,1.95
			c0.96,0.82,1.78,1.79,2.43,2.87c0.66,1.09,1.2,2.26,1.6,3.48c0.4,1.22,0.69,2.48,0.86,3.75c0.17,1.24,0.25,2.49,0.25,3.74
			c-0.02,1.86-0.24,3.71-0.67,5.51c-0.43,1.91-1.2,3.72-2.27,5.36c-1.1,1.65-2.56,3.03-4.27,4.03c-2.05,1.13-4.36,1.68-6.7,1.6
			h-12.1L582.27,292.02z M585.43,322.15h8.76c1.8,0.06,3.58-0.36,5.17-1.21c1.36-0.76,2.52-1.83,3.38-3.13
			c0.87-1.33,1.49-2.8,1.83-4.36c0.37-1.62,0.56-3.28,0.55-4.94c-0.01-1.58-0.18-3.16-0.51-4.71c-0.31-1.56-0.89-3.05-1.71-4.4
			c-0.8-1.31-1.89-2.42-3.18-3.24c-1.47-0.89-3.17-1.34-4.89-1.28h-9.41L585.43,322.15z"/>
		<path class="st0" d="M624.93,292.02h21.6v2.88h-18.45v11.68h16.65v2.88h-16.65v12.7h19.43v2.87h-22.58V292.02z"/>
		<path class="st0" d="M664.01,292.02h21.51v2.88h-18.36v11.04h16.41v2.87h-16.41v16.23h-3.15V292.02z"/>
		<path class="st0" d="M701.94,292.02h3.15v33.01h-3.15V292.02z"/>
	</g>
	<path class="st0" d="M286.23,388.57v2.16h-76.06v-2.16c5.04,0,8.73-3.69,11.07-11.06c0.99-3.09,1.49-6.32,1.48-9.57
		c-0.1-5.4-1.15-10.74-3.1-15.78l-7.83-19.15l-0.94-2.15h0.13l-33.58-82.13l-0.94-2.83l17.26-42.34h2.17l62.29,152.5
		c3.44,8.42,8.18,16.24,14.03,23.2C277.51,385.47,282.18,388.57,286.23,388.57z"/>
	<path class="st0" d="M192.21,341.35c-24.95,0-45.18,22.01-45.18,49.17c0-27.16-20.21-49.17-45.17-49.17
		c24.95,0,45.17-22.02,45.17-49.18C147.03,319.32,167.26,341.35,192.21,341.35z"/>
	<g>
		<path class="st0" d="M726.06,278.46h-2.9v8.46h-1.76v-8.46h-2.89v-1.38h7.56L726.06,278.46z"/>
		<path class="st0" d="M740.03,277.08v9.84h-1.76l0.05-7.74h-0.03l-2.93,7.74h-1.39l-2.76-7.74h-0.03l0.05,7.74h-1.67v-9.84h2.42
			l2.74,7.76h0.04l2.86-7.76H740.03z"/>
	</g>
	<g>
		<path class="st0" d="M312.62,344.7h8.25v1h-3.58v10.43h-1.09V345.7h-3.58V344.7z"/>
		<path class="st0" d="M326.34,344.7h1.09v5.04h6.84v-5.04h1.09v11.42h-1.09v-5.39h-6.84v5.39h-1.09L326.34,344.7z"/>
		<path class="st0" d="M341.69,344.7h7.48v1h-6.39v4.04h5.76v1h-5.76v4.4h6.72v1h-7.81L341.69,344.7z"/>
		<path class="st0" d="M362.65,344.7h1.17l3.58,9.69l3.64-9.69h1.12l-4.28,11.42h-0.96L362.65,344.7z"/>
		<path class="st0" d="M377.22,344.7h7.48v1h-6.39v4.04h5.76v1h-5.76v4.4h6.73v1h-7.81L377.22,344.7z"/>
		<path class="st0" d="M390.74,344.7h5.06c0.52-0.01,1.04,0.08,1.52,0.27c0.39,0.16,0.74,0.41,1.03,0.71
			c0.27,0.29,0.47,0.64,0.59,1.02c0.13,0.38,0.19,0.77,0.19,1.17c0.06,0.85-0.27,1.67-0.9,2.25c-0.7,0.55-1.56,0.87-2.46,0.89
			l3.66,5.12h-1.38l-3.63-5.07h-2.6v5.07h-1.09L390.74,344.7z M391.84,350.06h3.39c0.48,0.01,0.96-0.05,1.41-0.2
			c0.32-0.11,0.61-0.28,0.86-0.51c0.2-0.19,0.35-0.43,0.43-0.7c0.08-0.25,0.12-0.51,0.12-0.77c0.03-0.59-0.19-1.16-0.59-1.59
			c-0.58-0.46-1.32-0.67-2.05-0.59h-3.56L391.84,350.06z"/>
		<path class="st0" d="M404.75,344.7h1.09v11.42h-1.09V344.7z"/>
		<path class="st0" d="M412.13,344.7h7.44v1h-6.35v3.82h5.68v1h-5.68v5.62h-1.09V344.7z"/>
		<path class="st0" d="M425.26,344.7h1.09v11.42h-1.09V344.7z"/>
		<path class="st0" d="M440.55,347.91c-0.11-0.37-0.25-0.72-0.43-1.06c-0.16-0.3-0.38-0.57-0.64-0.79c-0.28-0.22-0.6-0.39-0.94-0.49
			c-0.43-0.12-0.88-0.18-1.32-0.17c-0.58-0.01-1.15,0.11-1.68,0.36c-0.47,0.24-0.88,0.59-1.19,1.02c-0.33,0.48-0.58,1.01-0.71,1.58
			c-0.17,0.67-0.25,1.36-0.24,2.05c-0.02,0.78,0.08,1.56,0.3,2.32c0.16,0.57,0.45,1.1,0.83,1.55c0.35,0.39,0.78,0.68,1.27,0.87
			c0.51,0.19,1.05,0.28,1.6,0.27c0.75,0.05,1.5-0.18,2.09-0.65c0.52-0.48,0.91-1.1,1.12-1.78l1.04,0.56
			c-0.31,0.91-0.93,1.69-1.74,2.2c-0.83,0.46-1.77,0.69-2.72,0.66c-0.65,0-1.29-0.11-1.9-0.33c-0.59-0.22-1.13-0.58-1.55-1.05
			c-0.48-0.54-0.83-1.17-1.04-1.86c-0.27-0.89-0.4-1.83-0.38-2.76c-0.02-0.94,0.11-1.87,0.4-2.76c0.22-0.69,0.59-1.32,1.07-1.86
			c0.42-0.47,0.95-0.83,1.53-1.05c0.57-0.22,1.18-0.33,1.8-0.33c0.52-0.01,1.03,0.05,1.54,0.16c0.44,0.1,0.86,0.27,1.24,0.51
			c0.38,0.24,0.71,0.55,0.99,0.91c0.31,0.42,0.57,0.88,0.77,1.36L440.55,347.91z"/>
		<path class="st0" d="M451.46,344.7l4.43,11.42h-1.17l-1.28-3.43h-5.02l-1.36,3.43h-1.12l4.65-11.42H451.46z M453.08,351.79
			l-2.12-5.63l-2.18,5.63H453.08z"/>
		<path class="st0" d="M458.81,344.7h8.25v1h-3.58v10.43h-1.09V345.7h-3.58V344.7z"/>
		<path class="st0" d="M472.48,344.7h1.09v11.42h-1.09V344.7z"/>
		<path class="st0" d="M479.52,350.41c0-0.75,0.1-1.5,0.3-2.22c0.18-0.69,0.49-1.34,0.91-1.92c0.41-0.56,0.93-1.02,1.54-1.36
			c1.39-0.68,3.01-0.68,4.4,0c0.61,0.33,1.13,0.8,1.54,1.36c0.42,0.58,0.72,1.23,0.91,1.92c0.4,1.45,0.4,2.98,0,4.43
			c-0.18,0.69-0.49,1.34-0.91,1.92c-0.41,0.56-0.93,1.02-1.54,1.36c-1.39,0.69-3.01,0.69-4.4,0c-0.61-0.33-1.13-0.8-1.54-1.36
			c-0.41-0.58-0.72-1.23-0.91-1.92C479.62,351.9,479.52,351.16,479.52,350.41z M480.61,350.41c0,0.6,0.07,1.2,0.22,1.79
			c0.14,0.57,0.37,1.11,0.69,1.61c0.31,0.47,0.72,0.87,1.2,1.16c1.08,0.6,2.4,0.6,3.48,0c0.48-0.29,0.89-0.69,1.2-1.16
			c0.32-0.49,0.55-1.03,0.69-1.61c0.29-1.17,0.29-2.4,0-3.57c-0.13-0.57-0.37-1.12-0.69-1.61c-0.31-0.47-0.72-0.87-1.2-1.16
			c-1.08-0.6-2.4-0.6-3.48,0c-0.48,0.29-0.89,0.69-1.2,1.16c-0.32,0.49-0.56,1.04-0.69,1.61
			C480.69,349.22,480.62,349.81,480.61,350.41z"/>
		<path class="st0" d="M495.41,344.7h1.08l6.53,9.59h0.03v-9.59h1.09v11.42h-1.08l-6.53-9.59h-0.03v9.59h-1.09V344.7z"/>
		<path class="st0" d="M527.01,348.28c-0.53-0.98-1.58-1.56-2.7-1.49c-0.8-0.03-1.58,0.29-2.13,0.87c-0.61,0.78-0.89,1.77-0.81,2.75
			c-0.05,0.94,0.21,1.87,0.74,2.65c0.53,0.67,1.35,1.04,2.2,0.98c0.28,0,0.55-0.04,0.82-0.12c0.28-0.08,0.55-0.2,0.79-0.37
			c0.25-0.17,0.46-0.39,0.62-0.64c0.18-0.28,0.28-0.61,0.31-0.94h-2.54v-2.22h4.94v6.37h-2.22v-1.03c-0.39,0.44-0.87,0.78-1.41,1
			c-0.61,0.24-1.26,0.36-1.91,0.35c-0.78,0.02-1.56-0.14-2.27-0.45c-0.63-0.28-1.18-0.71-1.62-1.24c-0.45-0.56-0.78-1.2-0.98-1.89
			c-0.23-0.78-0.34-1.59-0.33-2.4c-0.01-0.82,0.11-1.63,0.35-2.42c0.22-0.71,0.57-1.37,1.05-1.93c0.48-0.55,1.08-0.99,1.75-1.28
			c0.77-0.32,1.61-0.47,2.44-0.46c1.06-0.02,2.11,0.23,3.06,0.72c0.92,0.49,1.68,1.23,2.21,2.13L527.01,348.28z"/>
		<path class="st0" d="M546.26,350.41c0,0.78-0.13,1.56-0.39,2.29c-0.25,0.71-0.63,1.36-1.13,1.93c-0.5,0.57-1.12,1.02-1.81,1.32
			c-1.56,0.66-3.32,0.66-4.88,0c-0.69-0.31-1.31-0.76-1.81-1.32c-0.5-0.56-0.88-1.22-1.13-1.93c-0.52-1.48-0.52-3.1,0-4.59
			c0.25-0.71,0.63-1.36,1.13-1.93c0.5-0.56,1.12-1.02,1.81-1.32c1.56-0.65,3.32-0.65,4.88,0c0.69,0.31,1.31,0.76,1.81,1.32
			c0.5,0.56,0.88,1.22,1.13,1.93C546.13,348.85,546.26,349.63,546.26,350.41z M543.4,350.41c0-0.45-0.05-0.89-0.16-1.32
			c-0.1-0.41-0.27-0.81-0.51-1.16c-0.23-0.34-0.54-0.63-0.91-0.83c-0.41-0.22-0.88-0.33-1.35-0.31c-0.4,0-0.79,0.07-1.16,0.21
			c-0.35,0.14-0.67,0.36-0.92,0.64c-0.28,0.33-0.49,0.71-0.61,1.12c-0.16,0.54-0.23,1.09-0.22,1.65c0,0.43,0.05,0.85,0.14,1.27
			c0.09,0.42,0.25,0.81,0.47,1.17c0.23,0.35,0.53,0.65,0.9,0.86c0.43,0.23,0.92,0.35,1.41,0.33c0.9,0.03,1.75-0.4,2.25-1.16
			c0.24-0.35,0.41-0.75,0.51-1.16C543.35,351.3,543.4,350.86,543.4,350.41L543.4,350.41z"/>
		<path class="st0" d="M551.98,344.7h2.86v9.02h4.47v2.41h-7.33V344.7z"/>
		<path class="st0" d="M564.84,344.7h4.43c0.8-0.01,1.6,0.1,2.37,0.32c0.68,0.19,1.31,0.54,1.84,1.01c0.53,0.49,0.94,1.1,1.19,1.78
			c0.56,1.69,0.56,3.52,0,5.22c-0.25,0.68-0.65,1.29-1.19,1.78c-0.53,0.47-1.16,0.82-1.84,1.01c-0.77,0.22-1.57,0.33-2.37,0.32
			h-4.43V344.7z M567.69,353.72h1.64c0.47,0.01,0.93-0.07,1.36-0.26c0.35-0.16,0.66-0.4,0.9-0.71c0.24-0.31,0.4-0.67,0.5-1.05
			c0.2-0.85,0.2-1.73,0-2.58c-0.09-0.38-0.26-0.74-0.5-1.05c-0.24-0.31-0.55-0.55-0.91-0.7c-0.43-0.18-0.9-0.27-1.36-0.26h-1.62
			V353.72z"/>
		<path class="st0" d="M590.4,352.71c0.46,0.42,0.97,0.77,1.52,1.05c0.56,0.26,1.17,0.39,1.79,0.38c0.22,0,0.44-0.02,0.66-0.06
			c0.24-0.04,0.48-0.11,0.7-0.22c0.21-0.1,0.4-0.24,0.55-0.41c0.15-0.17,0.23-0.4,0.22-0.63c0.01-0.26-0.11-0.51-0.32-0.67
			c-0.29-0.18-0.62-0.3-0.96-0.34l-2.38-0.39c-0.9-0.09-1.76-0.47-2.44-1.07c-0.56-0.54-0.86-1.3-0.83-2.08
			c-0.02-0.61,0.12-1.22,0.39-1.78c0.24-0.48,0.6-0.9,1.03-1.21c0.45-0.32,0.96-0.55,1.49-0.69c0.57-0.15,1.16-0.23,1.76-0.22
			c0.95,0,1.88,0.19,2.75,0.56c0.87,0.37,1.65,0.93,2.29,1.64l-2.17,1.55c-0.75-0.92-1.88-1.45-3.06-1.44
			c-0.18,0-0.36,0.03-0.53,0.08c-0.19,0.05-0.36,0.12-0.53,0.22c-0.16,0.09-0.29,0.21-0.4,0.36c-0.27,0.38-0.19,0.91,0.19,1.18
			c0.01,0.01,0.02,0.02,0.04,0.02c0.37,0.2,0.78,0.33,1.2,0.38l1.09,0.18c0.54,0.09,1.08,0.21,1.6,0.36
			c0.47,0.13,0.91,0.33,1.32,0.59c0.37,0.23,0.68,0.55,0.9,0.93c0.23,0.42,0.35,0.9,0.33,1.38c0.03,0.73-0.15,1.45-0.51,2.09
			c-0.32,0.52-0.77,0.94-1.3,1.24c-0.53,0.3-1.1,0.5-1.7,0.59c-0.57,0.1-1.14,0.15-1.72,0.15c-0.93,0.01-1.86-0.17-2.72-0.52
			c-0.93-0.42-1.76-1.03-2.43-1.8L590.4,352.71z"/>
		<path class="st0" d="M603.38,344.7h8.83v2.21h-2.98v9.21h-2.86v-9.21h-2.98V344.7z"/>
		<path class="st0" d="M619.49,344.7h2.95l4.32,11.42h-3.07l-0.58-1.8h-4.22l-0.58,1.8h-3.05L619.49,344.7z M622.43,352.21
			l-1.41-4.72h-0.03l-1.41,4.72H622.43z"/>
		<path class="st0" d="M631.92,344.7h2.89l4.16,7.3H639v-7.3h2.6v11.42h-2.86l-4.19-7.19h-0.03v7.19h-2.6L631.92,344.7z"/>
		<path class="st0" d="M647.74,344.7h4.43c0.8-0.01,1.6,0.1,2.37,0.32c0.68,0.19,1.31,0.54,1.84,1.01c0.53,0.49,0.94,1.1,1.19,1.78
			c0.56,1.69,0.56,3.52,0,5.22c-0.25,0.68-0.65,1.29-1.19,1.78c-0.53,0.47-1.16,0.82-1.84,1.01c-0.77,0.22-1.57,0.33-2.37,0.32
			h-4.43V344.7z M650.6,353.72h1.64c0.47,0.01,0.93-0.07,1.36-0.26c0.35-0.16,0.66-0.4,0.9-0.71c0.24-0.31,0.4-0.67,0.5-1.05
			c0.2-0.85,0.2-1.73,0-2.58c-0.09-0.38-0.26-0.74-0.5-1.05c-0.24-0.31-0.55-0.55-0.91-0.7c-0.43-0.18-0.9-0.27-1.36-0.26h-1.62
			V353.72z"/>
		<path class="st0" d="M666.89,344.7h2.95l4.32,11.42h-3.07l-0.58-1.8h-4.22l-0.58,1.8h-3.05L666.89,344.7z M669.82,352.21
			l-1.41-4.72h-0.03l-1.41,4.72H669.82z"/>
		<path class="st0" d="M679.32,344.7h5.71c1.09-0.06,2.16,0.26,3.03,0.91c0.79,0.73,1.2,1.77,1.11,2.84
			c0.01,0.7-0.21,1.38-0.64,1.93c-0.44,0.56-1.04,0.96-1.72,1.15l2.62,4.59h-3.2l-2.25-4.11h-1.81v4.11h-2.86V344.7z M682.18,349.9
			h2.62c0.4,0.01,0.8-0.12,1.11-0.38c0.55-0.68,0.55-1.65,0-2.33c-0.31-0.25-0.71-0.39-1.11-0.38h-2.62V349.9z"/>
		<path class="st0" d="M694.84,344.7h4.43c0.8-0.01,1.6,0.1,2.38,0.32c0.68,0.19,1.31,0.54,1.84,1.01c0.53,0.49,0.94,1.1,1.19,1.78
			c0.56,1.69,0.56,3.52,0,5.22c-0.25,0.68-0.65,1.29-1.19,1.78c-0.53,0.47-1.16,0.82-1.84,1.01c-0.77,0.22-1.57,0.33-2.38,0.32
			h-4.43V344.7z M697.7,353.72h1.64c0.47,0.01,0.93-0.07,1.36-0.26c0.35-0.16,0.66-0.4,0.9-0.71c0.24-0.31,0.4-0.67,0.5-1.05
			c0.2-0.85,0.2-1.73,0-2.58c-0.09-0.38-0.26-0.74-0.5-1.05c-0.24-0.31-0.55-0.55-0.91-0.7c-0.43-0.18-0.9-0.27-1.36-0.26h-1.62
			L697.7,353.72z"/>
	</g>
</g>
</svg>
